<svg width="16" height="17" viewBox="0 0 16 17" fill="none" xmlns="http://www.w3.org/2000/svg">
<g clip-path="url(#clip0_3_21)">
<path d="M14.6666 7.88668V8.50001C14.6658 9.93763 14.2003 11.3365 13.3395 12.4879C12.4788 13.6393 11.2688 14.4817 9.89022 14.8893C8.5116 15.2969 7.03815 15.2479 5.68963 14.7497C4.3411 14.2515 3.18975 13.3307 2.40729 12.1247C1.62482 10.9187 1.25317 9.49205 1.34776 8.05755C1.44235 6.62305 1.99812 5.25756 2.93217 4.16473C3.86621 3.07189 5.1285 2.31027 6.53077 1.99344C7.93304 1.67662 9.40016 1.82157 10.7133 2.40668" stroke="#1F2937" strokeWidth="2" strokeLinecap="round" stroke-linejoin="round"/>
<path d="M14.6667 3.16669L8 9.84002L6 7.84002" stroke="#1F2937" strokeWidth="2" strokeLinecap="round" stroke-linejoin="round"/>
</g>
<defs>
<clipPath id="clip0_3_21">
<rect width="16" height="16" fill="white" transform="translate(0 0.5)"/>
</clipPath>
</defs>
</svg>
